<svg width="14" height="15" viewBox="0 0 14 15" fill="none" xmlns="http://www.w3.org/2000/svg">
<path d="M6.78125 0.96875C3.03516 0.96875 0 4.00391 0 7.75C0 11.4961 3.03516 14.5312 6.78125 14.5312C10.5273 14.5312 13.5625 11.4961 13.5625 7.75C13.5625 4.00391 10.5273 0.96875 6.78125 0.96875ZM10.2812 12.5078C9.29688 13.2461 8.06641 13.6562 6.78125 13.6562C5.46875 13.6562 4.23828 13.2461 3.28125 12.5078V12.125C3.28125 11.168 4.04688 10.375 5.03125 10.375C5.33203 10.375 5.76953 10.7031 6.78125 10.7031C7.76562 10.7031 8.20312 10.375 8.53125 10.375C9.48828 10.375 10.2812 11.168 10.2812 12.125V12.5078ZM11.1016 11.7695C10.9102 10.4844 9.84375 9.5 8.53125 9.5C7.95703 9.5 7.68359 9.82812 6.78125 9.82812C5.85156 9.82812 5.57812 9.5 5.03125 9.5C3.69141 9.5 2.625 10.4844 2.43359 11.7695C1.44922 10.7031 0.875 9.30859 0.875 7.75C0.875 4.49609 3.5 1.84375 6.78125 1.84375C10.0352 1.84375 12.6875 4.49609 12.6875 7.75C12.6875 9.30859 12.0859 10.7031 11.1016 11.7695ZM6.78125 4.03125C5.44141 4.03125 4.375 5.125 4.375 6.4375C4.375 7.77734 5.44141 8.84375 6.78125 8.84375C8.09375 8.84375 9.1875 7.77734 9.1875 6.4375C9.1875 5.125 8.09375 4.03125 6.78125 4.03125ZM6.78125 7.96875C5.93359 7.96875 5.25 7.28516 5.25 6.4375C5.25 5.61719 5.93359 4.90625 6.78125 4.90625C7.60156 4.90625 8.3125 5.61719 8.3125 6.4375C8.3125 7.28516 7.60156 7.96875 6.78125 7.96875Z" fill="white"/>
</svg>
