<svg width="45" height="45" viewBox="0 0 45 45" fill="none" xmlns="http://www.w3.org/2000/svg">
<g clip-path="url(#clip0_77_74)">
<path d="M6.44856 3.9164V6.49528H4.4036C3.68317 6.49528 3.26235 7.30774 3.67798 7.89617L8.16603 14.2502C8.51996 14.7514 9.26334 14.7514 9.61727 14.2502L14.1053 7.89617C14.521 7.30774 14.1001 6.49528 13.3797 6.49528H11.3347V3.9164C11.3347 2.24551 12.6941 0.886103 14.3651 0.886103C16.0361 0.886103 17.3953 2.24551 17.3953 3.9164V18.6198H22.2814V3.9164C22.2814 -0.448692 18.7301 -4 14.365 -4C9.99995 -4 6.44856 -0.448692 6.44856 3.9164Z" fill="#31A7FB"/>
<path d="M22.2812 3.91622V18.6195H19.5902V3.91622C19.5902 0.0101852 16.7463 -3.24484 13.0195 -3.88495C13.4569 -3.96106 13.9059 -4 14.365 -4C18.7301 -4 22.2812 -0.448867 22.2812 3.91622Z" fill="#1C96F9"/>
<path d="M37.1018 41H11.8983C11.002 41 10.2463 40.3317 10.1368 39.442L7.90039 21.2755H41.0996L38.8633 39.442C38.7538 40.3317 37.9981 41 37.1018 41Z" fill="#F82F40"/>
<path d="M7.90039 21.2758L8.29704 24.497H20.9586C21.6136 24.497 22.2281 24.8482 22.5303 25.4292C22.9001 26.1402 23.6433 26.6258 24.5 26.6258C25.3569 26.6258 26.1001 26.1402 26.4697 25.4292C26.7719 24.8482 27.3864 24.497 28.0414 24.497H34.5834C36.0457 24.497 37.1779 25.7772 36.9992 27.2284L35.4957 39.4417C35.3857 40.3318 34.6306 41 33.7342 41H37.1019C37.9983 41 38.7534 40.3318 38.8635 39.4417L41.0997 21.2758H7.90039Z" fill="#E22334"/>
<path d="M21.5391 36.863C20.6651 36.9241 19.907 36.2651 19.8459 35.3911L19.377 28.6854C19.3159 27.8114 19.9748 27.0533 20.8489 26.9921C21.7229 26.9311 22.4809 27.59 22.5421 28.464L23.011 35.1698C23.0721 36.0437 22.4131 36.8018 21.5391 36.863Z" fill="#F2EFF2"/>
<path d="M15.2273 36.8268C14.3596 36.9487 13.5574 36.3443 13.4355 35.4767L12.5 28.82C12.3781 27.9524 12.9825 27.1502 13.8502 27.0283C14.7178 26.9064 15.52 27.5108 15.6419 28.3785L16.5774 35.0351C16.6993 35.9027 16.0948 36.7049 15.2273 36.8268Z" fill="#F2EFF2"/>
<path d="M27.5403 36.863C28.4143 36.9241 29.1723 36.2651 29.2335 35.3911L29.7024 28.6854C29.7635 27.8114 29.1046 27.0533 28.2305 26.9921C27.3565 26.9311 26.5984 27.59 26.5373 28.464L26.0684 35.1698C26.0074 36.0437 26.6663 36.8018 27.5403 36.863Z" fill="#F2EFF2"/>
<path d="M33.8522 36.8268C34.7198 36.9487 35.522 36.3443 35.6439 35.4767L36.5794 28.82C36.7013 27.9523 36.0969 27.1502 35.2292 27.0283C34.3617 26.9064 33.5594 27.5108 33.4375 28.3784L32.502 35.0351C32.38 35.9027 32.9845 36.7049 33.8522 36.8268Z" fill="#F2EFF2"/>
<path d="M41.6887 22.2789H7.31112C6.04664 22.2789 5.02148 21.2539 5.02148 19.9893C5.02148 18.7248 6.04655 17.6996 7.31112 17.6996H41.6887C42.9532 17.6996 43.9783 18.7247 43.9783 19.9893C43.9783 21.2539 42.9532 22.2789 41.6887 22.2789Z" fill="#FCB982"/>
<path d="M43.9784 19.989C43.9784 20.6217 43.7219 21.1932 43.3075 21.6076C42.894 22.022 42.3208 22.2785 41.6889 22.2785H38.5352C39.167 22.2785 39.7402 22.022 40.1538 21.6076C40.5682 21.1932 40.8246 20.6217 40.8246 19.989C40.8246 18.7244 39.7996 17.6996 38.5352 17.6996H41.6889C42.9534 17.6996 43.9784 18.7245 43.9784 19.989Z" fill="#FCA863"/>
<path d="M24.499 24.6498C23.2731 24.6498 22.2793 23.656 22.2793 22.4301V5.26814C22.2793 4.04224 23.2731 3.04846 24.499 3.04846C25.7249 3.04846 26.7186 4.04224 26.7186 5.26814V22.4301C26.7186 23.656 25.7249 24.6498 24.499 24.6498Z" fill="#FEE265"/>
<path d="M26.7185 5.26806V22.4304C26.7185 23.6559 25.7247 24.6498 24.4991 24.6498C24.1007 24.6498 23.7253 24.5442 23.4023 24.3596C24.0723 23.9771 24.524 23.2565 24.524 22.4304V5.26806C24.524 4.65573 24.2755 4.10026 23.8735 3.69912C23.7342 3.55894 23.5754 3.43739 23.4023 3.33886C23.7253 3.15429 24.1007 3.04865 24.4991 3.04865C25.1115 3.04865 25.6669 3.29711 26.0681 3.69912C26.4701 4.10017 26.7185 4.65573 26.7185 5.26806Z" fill="#FDD330"/>
<path d="M42.5517 8.44356V17.3605H44.5967C45.3171 17.3605 45.7379 18.173 45.3223 18.7614L40.8342 25.1154C40.4803 25.6166 39.7369 25.6166 39.383 25.1154L34.8949 18.7614C34.4793 18.173 34.9001 17.3605 35.6206 17.3605H37.6655V8.44356C37.6655 6.77267 36.3061 5.41326 34.6351 5.41326C32.9642 5.41326 31.6048 6.77267 31.6048 8.44356V17.6996H26.7188V8.44356C26.7188 4.07838 30.2701 0.527161 34.6351 0.527161C39.0002 0.527161 42.5517 4.07847 42.5517 8.44356Z" fill="#5169CD"/>
<path d="M45.323 18.7617L40.8348 25.1151C40.4808 25.6167 39.7384 25.6167 39.3843 25.1151L38.8835 24.4062L42.8702 18.7617C43.2857 18.1732 42.8657 17.3602 42.1449 17.3602H41.005C40.5049 17.3602 40.0995 16.9548 40.0995 16.4547V8.44348C40.0995 4.49578 37.1949 1.21359 33.4102 0.622353C33.9034 0.54536 34.4104 0.51372 34.9278 0.532616C39.201 0.688359 42.5523 4.2699 42.5523 8.54604V17.3601H44.5977C45.3176 17.3601 45.7386 18.1731 45.323 18.7617Z" fill="#3351C5"/>
</g>
<defs>
<clipPath id="clip0_77_74">
<rect width="45" height="45" fill="white"/>
</clipPath>
</defs>
</svg>
