<svg width="13" height="15" viewBox="0 0 13 15" fill="none" xmlns="http://www.w3.org/2000/svg">
<path d="M6.125 12.2344C6.42578 12.2344 6.67188 11.9883 6.67188 11.6875V9.9375C6.67188 9.63672 6.42578 9.39062 6.125 9.39062C5.82422 9.39062 5.57812 9.63672 5.57812 9.9375V11.6875C5.57812 11.9883 5.82422 12.2344 6.125 12.2344ZM12.25 8.1875C12.25 7.47656 11.6484 6.875 10.9375 6.875H10.5V5.17969C10.5 2.77344 8.53125 0.777344 6.125 0.75C3.71875 0.75 1.75 2.71875 1.75 5.125V6.875H1.3125C0.574219 6.875 0 7.47656 0 8.1875V13.4375C0 14.1758 0.574219 14.75 1.3125 14.75H10.9375C11.6484 14.75 12.25 14.1758 12.25 13.4375V8.1875ZM2.625 6.875V5.125C2.625 3.21094 4.18359 1.625 6.125 1.625C8.03906 1.625 9.625 3.21094 9.625 5.125V6.875H2.625ZM11.375 13.4375C11.375 13.6836 11.1562 13.875 10.9375 13.875H1.3125C1.06641 13.875 0.875 13.6836 0.875 13.4375V8.1875C0.875 7.96875 1.06641 7.75 1.3125 7.75H10.9375C11.1562 7.75 11.375 7.96875 11.375 8.1875V13.4375Z" fill="white"/>
</svg>
