<svg width="16" height="15" viewBox="0 0 16 15" fill="none" xmlns="http://www.w3.org/2000/svg">
<path d="M14.7266 11.4141L11.3359 7.99609C10.8984 7.58594 10.3516 7.36719 9.77734 7.36719C9.36719 7.36719 8.92969 7.47656 8.57422 7.72266L6.25 5.39844V3.375L2.75 0.75L1 2.5L3.625 6H5.62109L7.94531 8.35156C7.39844 9.19922 7.48047 10.3477 8.24609 11.1133L11.6367 14.5039C11.8008 14.668 12.0469 14.7773 12.2656 14.7773C12.4844 14.7773 12.7031 14.668 12.8672 14.5039L14.7266 12.6445C15.082 12.3164 15.082 11.7422 14.7266 11.4141ZM5.375 5.09766V5.125H4.0625L2.14844 2.58203L2.83203 1.92578L5.375 3.8125V5.09766ZM12.2656 13.875L8.84766 10.4844C8.60156 10.2383 8.46484 9.91016 8.46484 9.55469C8.46484 9.19922 8.60156 8.87109 8.84766 8.625C9.09375 8.37891 9.42188 8.24219 9.77734 8.24219C10.1328 8.24219 10.4609 8.37891 10.707 8.625L14.125 12.043L12.2656 13.875ZM2.75 12.5625C2.75 12.8086 2.94141 13 3.1875 13C3.40625 13 3.625 12.8086 3.625 12.5625C3.625 12.3438 3.40625 12.125 3.1875 12.125C2.94141 12.125 2.75 12.3438 2.75 12.5625ZM8.54688 2.58203C9.17578 1.98047 9.99609 1.625 10.8438 1.625C11.0352 1.625 11.2266 1.65234 11.418 1.67969L9.53125 3.59375L9.88672 5.86328L12.1562 6.21875L14.0703 4.33203C14.2344 5.37109 13.9062 6.4375 13.168 7.20312C12.9219 7.44922 12.6484 7.64062 12.3477 7.77734L12.9766 8.43359C13.2773 8.26953 13.5234 8.05078 13.7695 7.80469C14.8086 6.76562 15.2188 5.31641 14.8633 3.89453C14.8086 3.62109 14.5898 3.42969 14.3438 3.34766C14.0703 3.29297 13.7969 3.34766 13.6055 3.53906L11.8555 5.28906L10.6523 5.09766L10.4609 3.89453L12.2109 2.14453C12.375 1.95312 12.457 1.67969 12.4023 1.40625C12.3203 1.16016 12.1016 0.941406 11.8555 0.886719C10.4336 0.53125 8.98438 0.941406 7.94531 1.98047C7.58984 2.33594 7.31641 2.74609 7.125 3.18359V5.04297L7.72656 5.64453C7.45312 4.52344 7.75391 3.375 8.54688 2.58203ZM3.92578 13.5469C3.46094 13.9844 2.66797 13.9844 2.20312 13.5469C1.73828 13.0547 1.73828 12.2891 2.20312 11.8242L6.19531 7.83203L5.59375 7.23047L1.60156 11.2227C0.78125 12.0156 0.78125 13.3555 1.60156 14.1484C1.98438 14.5586 2.50391 14.75 3.05078 14.75C3.625 14.75 4.14453 14.5586 4.52734 14.1484L7.31641 11.3594C7.125 11.1133 6.98828 10.8398 6.87891 10.5664L3.92578 13.5469Z" fill="white"/>
</svg>
