<svg width="14" height="15" viewBox="0 0 14 15" fill="none" xmlns="http://www.w3.org/2000/svg">
<path d="M7.125 13.875C6.63281 13.875 6.25 13.4922 6.25 13H5.375C5.375 13.9844 6.14062 14.75 7.125 14.75C8.08203 14.75 8.875 13.9844 8.875 13H8C8 13.4922 7.58984 13.875 7.125 13.875ZM12.8398 9.91016C12.0742 9.19922 11.5 8.43359 11.5 5.83594C11.5 3.67578 9.75 1.89844 7.5625 1.67969V1.1875C7.5625 0.96875 7.34375 0.75 7.125 0.75C6.87891 0.75 6.6875 0.96875 6.6875 1.1875V1.67969C4.47266 1.89844 2.72266 3.67578 2.72266 5.83594C2.72266 8.43359 2.14844 9.19922 1.38281 9.91016C1 10.293 0.890625 10.8398 1.08203 11.332C1.27344 11.8242 1.76562 12.125 2.3125 12.125H11.9375C12.457 12.125 12.9492 11.8242 13.1406 11.332C13.332 10.8398 13.2227 10.293 12.8398 9.91016ZM11.9375 11.25H2.3125C1.90234 11.25 1.71094 10.8125 1.98438 10.5391C2.94141 9.63672 3.59766 8.625 3.59766 5.83594C3.59766 4.00391 5.18359 2.5 7.125 2.5C9.03906 2.5 10.625 4.00391 10.625 5.83594C10.625 8.625 11.2812 9.63672 12.2383 10.5391C12.5117 10.8125 12.3203 11.25 11.9375 11.25Z" fill="white"/>
</svg>
