<svg width="14" height="15" viewBox="0 0 14 15" fill="none" xmlns="http://www.w3.org/2000/svg">
<path d="M13.1797 8.95312L12.3047 8.43359C12.332 8.21484 12.332 7.99609 12.332 7.75C12.332 7.53125 12.332 7.3125 12.3047 7.09375L13.1797 6.57422C13.4531 6.4375 13.5625 6.10938 13.4805 5.83594C13.1797 4.79688 12.6328 3.86719 11.9219 3.10156C11.7031 2.88281 11.375 2.82812 11.1016 2.99219L10.2266 3.51172C9.87109 3.23828 9.48828 3.01953 9.05078 2.82812V1.81641C9.05078 1.48828 8.85938 1.24219 8.55859 1.16016C7.51953 0.914062 6.45312 0.914062 5.41406 1.16016C5.11328 1.24219 4.92188 1.48828 4.92188 1.81641V2.82812C4.48438 3.01953 4.10156 3.23828 3.74609 3.51172L2.87109 2.99219C2.59766 2.82812 2.26953 2.88281 2.05078 3.10156C1.33984 3.86719 0.792969 4.79688 0.492188 5.83594C0.410156 6.10938 0.519531 6.4375 0.792969 6.57422L1.66797 7.09375C1.64062 7.3125 1.64062 7.53125 1.64062 7.77734C1.64062 7.99609 1.64062 8.21484 1.66797 8.43359L0.792969 8.95312C0.519531 9.08984 0.410156 9.41797 0.492188 9.69141C0.792969 10.7305 1.33984 11.6602 2.05078 12.4258C2.26953 12.6445 2.59766 12.6992 2.87109 12.5352L3.74609 12.0156C4.10156 12.2891 4.48438 12.5078 4.92188 12.6992V13.7109C4.92188 14.0391 5.11328 14.2852 5.41406 14.3672C6.45312 14.6133 7.51953 14.6133 8.55859 14.3672C8.85938 14.2852 9.05078 14.0391 9.05078 13.7109V12.6992C9.48828 12.5078 9.87109 12.2891 10.2266 12.0156L11.1016 12.5352C11.375 12.6992 11.7031 12.6445 11.9219 12.4258C12.6328 11.6602 13.1797 10.7305 13.4805 9.69141C13.5625 9.41797 13.4531 9.08984 13.1797 8.95312ZM11.4023 11.6875L10.1172 10.9492C9.37891 11.6055 9.13281 11.7422 8.17578 12.0977V13.5469C7.79297 13.6289 7.38281 13.6836 6.97266 13.6836C6.5625 13.6836 6.17969 13.6289 5.79688 13.5469V12.0977C4.86719 11.7695 4.59375 11.6055 3.85547 10.9492L2.57031 11.6875C2.05078 11.0859 1.64062 10.375 1.36719 9.60938L2.65234 8.89844C2.46094 7.91406 2.46094 7.61328 2.65234 6.62891L1.36719 5.91797C1.64062 5.15234 2.05078 4.44141 2.57031 3.83984L3.85547 4.57812C4.59375 3.92188 4.86719 3.75781 5.79688 3.42969V1.98047C6.17969 1.89844 6.58984 1.84375 7 1.84375C7.41016 1.84375 7.79297 1.89844 8.17578 1.98047V3.42969C9.10547 3.75781 9.37891 3.92188 10.1172 4.57812L11.4023 3.83984C11.9219 4.44141 12.332 5.15234 12.6055 5.91797L11.3203 6.62891C11.5117 7.61328 11.5117 7.91406 11.3203 8.89844L12.6055 9.60938C12.332 10.375 11.9219 11.0859 11.4023 11.6875ZM7 5.125C5.55078 5.125 4.375 6.32812 4.375 7.75C4.375 9.19922 5.55078 10.375 7 10.375C8.42188 10.375 9.625 9.19922 9.625 7.75C9.625 6.32812 8.42188 5.125 7 5.125ZM7 9.5C6.01562 9.5 5.25 8.73438 5.25 7.75C5.25 6.79297 6.01562 6 7 6C7.95703 6 8.75 6.79297 8.75 7.75C8.75 8.73438 7.95703 9.5 7 9.5Z" fill="white"/>
</svg>
