<svg width="18" height="13" viewBox="0 0 18 13" fill="none" xmlns="http://www.w3.org/2000/svg">
<path d="M8.53125 4.37109C8.39453 4.23438 8.20312 4.23438 8.06641 4.37109L5.38672 7.05078C5.25 7.1875 5.25 7.40625 5.38672 7.51562L5.52344 7.67969C5.66016 7.81641 5.87891 7.81641 5.98828 7.67969L7.875 5.82031V9.92188C7.875 10.1133 8.01172 10.25 8.20312 10.25H8.42188C8.58594 10.25 8.75 10.1133 8.75 9.92188V5.82031L10.6094 7.67969C10.7461 7.81641 10.9375 7.81641 11.0742 7.67969L11.2383 7.51562C11.3477 7.40625 11.3477 7.1875 11.2383 7.05078L8.53125 4.37109ZM15.6133 6.28516C15.6953 6.01172 15.75 5.73828 15.75 5.4375C15.75 3.76953 14.3555 2.375 12.6875 2.375C12.2227 2.375 11.7852 2.48438 11.375 2.67578C10.5 1.44531 9.05078 0.625 7.4375 0.625C4.83984 0.625 2.73438 2.67578 2.625 5.24609C1.06641 5.79297 0 7.26953 0 8.9375C0 11.125 1.75 12.875 3.9375 12.875H14C15.9141 12.875 17.5 11.3164 17.5 9.375C17.5 8.08984 16.7891 6.91406 15.6133 6.28516ZM14 12H3.9375C2.24219 12 0.875 10.6328 0.875 8.9375C0.875 7.40625 2.02344 6.12109 3.52734 5.90234C3.5 5.76562 3.5 5.60156 3.5 5.4375C3.5 3.27734 5.25 1.5 7.4375 1.5C9.07812 1.5 10.4727 2.51172 11.0742 3.96094C11.4844 3.52344 12.0312 3.25 12.6875 3.25C13.8906 3.25 14.875 4.23438 14.875 5.4375C14.875 5.95703 14.6836 6.42188 14.4102 6.80469C15.668 6.99609 16.625 8.08984 16.625 9.375C16.625 10.8242 15.4492 12 14 12Z" fill="white"/>
</svg>
