<svg width="47" height="47" viewBox="0 0 47 47" fill="none" xmlns="http://www.w3.org/2000/svg">
<path d="M16.4062 17.1875H7.8125C7.38125 17.1875 7.03125 16.8375 7.03125 16.4062C7.03125 15.975 7.38125 15.625 7.8125 15.625H16.0312L18.9219 12.0117C19.1914 11.6742 19.6844 11.6203 20.0195 11.8898C20.357 12.1594 20.4109 12.6508 20.1414 12.9875L17.0164 16.8937C16.868 17.0797 16.6438 17.1875 16.4062 17.1875Z" fill="#FDC741"/>
<path d="M38.2816 44.5312C37.8504 44.5312 37.5004 44.1812 37.5004 43.75V35.5312L33.8871 32.6406C33.5496 32.3711 33.4957 31.8797 33.7652 31.543C34.0347 31.2047 34.5269 31.1516 34.8629 31.4211L38.7691 34.5461C38.9551 34.6945 39.0629 34.9187 39.0629 35.1562V43.75C39.0629 44.1812 38.7129 44.5312 38.2816 44.5312Z" fill="#FDC741"/>
<path d="M43.7504 40.625C43.3191 40.625 42.9691 40.275 42.9691 39.8437V31.625L39.3558 28.7344C39.0183 28.4648 38.9644 27.9734 39.234 27.6367C39.5035 27.2992 39.9957 27.2453 40.3316 27.5148L44.2379 30.6398C44.4238 30.7883 44.5316 31.0125 44.5316 31.25V39.8437C44.5316 40.275 44.1816 40.625 43.7504 40.625Z" fill="#FDC741"/>
<path d="M31.25 42.1875C30.8187 42.1875 30.4688 41.8375 30.4688 41.4062V37.5C30.4688 37.3312 30.5234 37.1664 30.625 37.0312L35.3125 30.7812C35.5719 30.4375 36.0609 30.3664 36.4062 30.625C36.7516 30.8836 36.8211 31.3734 36.5625 31.7187L32.0312 37.7601V41.4062C32.0312 41.8375 31.6812 42.1875 31.25 42.1875Z" fill="#FDC741"/>
<path d="M9.375 11.7188H3.90625C3.475 11.7188 3.125 11.3688 3.125 10.9375C3.125 10.5063 3.475 10.1563 3.90625 10.1563H9.19063L15.2758 7.11329C15.6633 6.91954 16.1313 7.07735 16.3242 7.46251C16.5172 7.84844 16.3609 8.31798 15.975 8.51094L9.725 11.6359C9.61641 11.6906 9.49609 11.7188 9.375 11.7188Z" fill="#FDC741"/>
<path d="M16.4055 9.375C16.243 9.375 16.0781 9.32422 15.9375 9.21875L9.89609 4.6875H6.25C5.81875 4.6875 5.46875 4.3375 5.46875 3.90625C5.46875 3.475 5.81875 3.125 6.25 3.125H10.1563C10.325 3.125 10.4898 3.17969 10.625 3.28125L16.875 7.96875C17.2203 8.22734 17.2898 8.71719 17.0312 9.0625C16.8781 9.26719 16.643 9.375 16.4055 9.375Z" fill="#FDC741"/>
<path d="M28.9062 34.375C38.3986 34.375 46.0938 26.6799 46.0938 17.1875C46.0938 7.69511 38.3986 0 28.9062 0C19.4139 0 11.7188 7.69511 11.7188 17.1875C11.7188 26.6799 19.4139 34.375 28.9062 34.375Z" fill="#FFFA48"/>
<path d="M44.8906 23.4976C42.3859 29.8656 36.1742 34.375 28.9062 34.375C19.4125 34.375 11.7188 26.6812 11.7188 17.1875C11.7188 10.5008 15.5328 4.70624 21.1063 1.87421C20.3289 3.83046 19.9031 5.95858 19.9031 8.18436C19.9031 17.6781 27.5969 25.3719 37.0906 25.3719C39.8984 25.3719 42.55 24.7008 44.8906 23.4976Z" fill="#FCEA42"/>
<path d="M28.9062 31.25C36.6728 31.25 42.9688 24.954 42.9688 17.1875C42.9688 9.421 36.6728 3.125 28.9062 3.125C21.1397 3.125 14.8438 9.421 14.8438 17.1875C14.8438 24.954 21.1397 31.25 28.9062 31.25Z" fill="#FDC741"/>
<path d="M37.0906 25.3719C27.5969 25.3719 19.9031 17.6781 19.9031 8.18437C19.9031 7.54453 19.9477 6.9164 20.0164 6.29453C16.8602 8.87343 14.8438 12.7937 14.8438 17.1875C14.8438 24.9539 21.1398 31.25 28.9062 31.25C33.7781 31.25 38.0695 28.7711 40.593 25.0078C39.4609 25.2422 38.2914 25.3719 37.0906 25.3719Z" fill="#EFAD1B"/>
<path d="M10.9375 27.3438H7.03125C6.6 27.3438 6.25 26.9937 6.25 26.5625V17.1875C6.25 16.7563 6.6 16.4062 7.03125 16.4062C7.4625 16.4062 7.8125 16.7563 7.8125 17.1875V25.7812H10.9375C11.3688 25.7812 11.7188 26.1313 11.7188 26.5625C11.7188 26.9937 11.3688 27.3438 10.9375 27.3438Z" fill="#FDC741"/>
<path d="M38.2812 46.0938C39.1442 46.0938 39.8438 45.3942 39.8438 44.5312C39.8438 43.6683 39.1442 42.9688 38.2812 42.9688C37.4183 42.9688 36.7188 43.6683 36.7188 44.5312C36.7188 45.3942 37.4183 46.0938 38.2812 46.0938Z" fill="#FFFA48"/>
<path d="M43.75 42.1875C44.6129 42.1875 45.3125 41.4879 45.3125 40.625C45.3125 39.7621 44.6129 39.0625 43.75 39.0625C42.8871 39.0625 42.1875 39.7621 42.1875 40.625C42.1875 41.4879 42.8871 42.1875 43.75 42.1875Z" fill="#FFFA48"/>
<path d="M31.25 43.75C32.1129 43.75 32.8125 43.0504 32.8125 42.1875C32.8125 41.3246 32.1129 40.625 31.25 40.625C30.3871 40.625 29.6875 41.3246 29.6875 42.1875C29.6875 43.0504 30.3871 43.75 31.25 43.75Z" fill="#FFFA48"/>
<path d="M3.125 12.5C3.98795 12.5 4.6875 11.8004 4.6875 10.9375C4.6875 10.0746 3.98795 9.375 3.125 9.375C2.26206 9.375 1.5625 10.0746 1.5625 10.9375C1.5625 11.8004 2.26206 12.5 3.125 12.5Z" fill="#FFFA48"/>
<path d="M7.03125 17.9688C7.8942 17.9688 8.59375 17.2692 8.59375 16.4062C8.59375 15.5433 7.8942 14.8438 7.03125 14.8438C6.16831 14.8438 5.46875 15.5433 5.46875 16.4062C5.46875 17.2692 6.16831 17.9688 7.03125 17.9688Z" fill="#FFFA48"/>
<path d="M5.46875 5.46875C6.3317 5.46875 7.03125 4.7692 7.03125 3.90625C7.03125 3.04331 6.3317 2.34375 5.46875 2.34375C4.60581 2.34375 3.90625 3.04331 3.90625 3.90625C3.90625 4.7692 4.60581 5.46875 5.46875 5.46875Z" fill="#FFFA48"/>
<path d="M43.75 41.4062C44.1815 41.4062 44.5312 41.0565 44.5312 40.625C44.5312 40.1935 44.1815 39.8438 43.75 39.8438C43.3185 39.8438 42.9688 40.1935 42.9688 40.625C42.9688 41.0565 43.3185 41.4062 43.75 41.4062Z" fill="#FDC741"/>
<path d="M38.2812 45.3125C38.7127 45.3125 39.0625 44.9627 39.0625 44.5312C39.0625 44.0998 38.7127 43.75 38.2812 43.75C37.8498 43.75 37.5 44.0998 37.5 44.5312C37.5 44.9627 37.8498 45.3125 38.2812 45.3125Z" fill="#FDC741"/>
<path d="M31.25 42.9688C31.6815 42.9688 32.0312 42.619 32.0312 42.1875C32.0312 41.756 31.6815 41.4062 31.25 41.4062C30.8185 41.4062 30.4688 41.756 30.4688 42.1875C30.4688 42.619 30.8185 42.9688 31.25 42.9688Z" fill="#FDC741"/>
<path d="M7.03125 17.1875C7.46272 17.1875 7.8125 16.8377 7.8125 16.4062C7.8125 15.9748 7.46272 15.625 7.03125 15.625C6.59978 15.625 6.25 15.9748 6.25 16.4062C6.25 16.8377 6.59978 17.1875 7.03125 17.1875Z" fill="#FDC741"/>
<path d="M3.125 11.7188C3.55647 11.7188 3.90625 11.369 3.90625 10.9375C3.90625 10.506 3.55647 10.1562 3.125 10.1562C2.69353 10.1562 2.34375 10.506 2.34375 10.9375C2.34375 11.369 2.69353 11.7188 3.125 11.7188Z" fill="#FDC741"/>
<path d="M5.46875 4.6875C5.90022 4.6875 6.25 4.33772 6.25 3.90625C6.25 3.47478 5.90022 3.125 5.46875 3.125C5.03728 3.125 4.6875 3.47478 4.6875 3.90625C4.6875 4.33772 5.03728 4.6875 5.46875 4.6875Z" fill="#FDC741"/>
<path d="M18.75 17.9688C19.1815 17.9688 19.5312 17.619 19.5312 17.1875C19.5312 16.756 19.1815 16.4062 18.75 16.4062C18.3185 16.4062 17.9688 16.756 17.9688 17.1875C17.9688 17.619 18.3185 17.9688 18.75 17.9688Z" fill="#FCEA42"/>
<path d="M39.0625 17.9688C39.494 17.9688 39.8438 17.619 39.8438 17.1875C39.8438 16.756 39.494 16.4062 39.0625 16.4062C38.631 16.4062 38.2812 16.756 38.2812 17.1875C38.2812 17.619 38.631 17.9688 39.0625 17.9688Z" fill="#FFFA48"/>
<path d="M25 21.0938C24.7086 21.0938 24.4359 20.9313 24.3008 20.6617L22.6562 17.3719V20.3125C22.6562 20.7438 22.3062 21.0938 21.875 21.0938C21.4438 21.0938 21.0938 20.7438 21.0938 20.3125V14.0625C21.0938 13.7 21.343 13.3852 21.6953 13.3023C22.05 13.2195 22.4117 13.3898 22.5742 13.7133L24.2188 17.0031V14.0625C24.2188 13.6313 24.5687 13.2812 25 13.2812C25.4313 13.2812 25.7812 13.6313 25.7812 14.0625V20.3125C25.7812 20.675 25.532 20.9898 25.1797 21.0727C25.1195 21.0867 25.0594 21.0938 25 21.0938Z" fill="#FFFA48"/>
<path d="M31.25 13.2812H28.125C27.6938 13.2812 27.3438 13.6313 27.3438 14.0625V20.3125C27.3438 20.7438 27.6938 21.0938 28.125 21.0938C28.5562 21.0938 28.9062 20.7438 28.9062 20.3125V17.9688H30.4688C30.9 17.9688 31.25 17.6188 31.25 17.1875C31.25 16.7562 30.9 16.4062 30.4688 16.4062H28.9062V14.8438H31.25C31.6813 14.8438 32.0312 14.4937 32.0312 14.0625C32.0312 13.6313 31.6813 13.2812 31.25 13.2812Z" fill="#FFFA48"/>
<path d="M37.5 13.2812H34.375C33.9438 13.2812 33.5938 13.6313 33.5938 14.0625C33.5938 14.4937 33.9438 14.8438 34.375 14.8438H35.1562V20.3125C35.1562 20.7438 35.5063 21.0938 35.9375 21.0938C36.3688 21.0938 36.7188 20.7438 36.7188 20.3125V14.8438H37.5C37.9313 14.8438 38.2812 14.4937 38.2812 14.0625C38.2812 13.6313 37.9313 13.2812 37.5 13.2812Z" fill="#FFFA48"/>
<path d="M33.5929 11.7188C33.4444 11.7188 33.2937 11.6766 33.1601 11.5875L28.9062 8.75156L24.6522 11.5875C24.2921 11.8266 23.8077 11.7297 23.5687 11.3711C23.3296 11.0125 23.4265 10.5266 23.7851 10.2875L28.4726 7.1625C28.7351 6.9875 29.0765 6.9875 29.339 7.1625L34.0265 10.2875C34.3851 10.5266 34.4819 11.0117 34.2429 11.3711C34.0929 11.5969 33.8452 11.7188 33.5929 11.7188Z" fill="#FFFA48"/>
<path d="M28.9062 27.3437C28.7554 27.3437 28.6038 27.3 28.4726 27.2125L23.7851 24.0875C23.4265 23.8484 23.3296 23.3633 23.5687 23.0039C23.8077 22.6445 24.2921 22.5476 24.6522 22.7875L28.9062 25.6234L33.1601 22.7875C33.5187 22.5476 34.003 22.6445 34.2437 23.0039C34.4827 23.3625 34.3858 23.8484 34.0272 24.0875L29.3397 27.2125C29.2085 27.3 29.0569 27.3437 28.9062 27.3437Z" fill="#FFFA48"/>
<path d="M21.0938 14.6562C21.5156 15.7031 22.0391 16.6953 22.6562 17.625V20.3125C22.6562 20.7422 22.3047 21.0937 21.875 21.0937C21.4453 21.0937 21.0938 20.7422 21.0938 20.3125V14.6562Z" fill="#FCEA42"/>
<path d="M25.4687 20.9297C25.3828 21 25.2891 21.0469 25.1797 21.0703C25.1172 21.0859 25.0625 21.0938 25 21.0938C24.7109 21.0938 24.4375 20.9297 24.3047 20.6641L23.1016 18.2656C23.7969 19.2344 24.5937 20.125 25.4687 20.9297Z" fill="#FCEA42"/>
<path d="M32.7961 24.9062L29.3351 27.2109C29.2101 27.2969 29.0539 27.3437 28.9054 27.3437C28.757 27.3437 28.6008 27.2969 28.4758 27.2109L23.7883 24.0859C23.4289 23.8515 23.3273 23.3594 23.5695 23.0078C23.8039 22.6484 24.2883 22.5469 24.6476 22.789L28.9054 25.625L30.9132 24.289C31.5226 24.5312 32.1554 24.7344 32.7961 24.9062Z" fill="#FCEA42"/>
<path d="M20.3125 28.9062H6.25C2.79844 28.9062 0 31.7047 0 35.1562V42.5781C0 44.5195 1.57422 46.0938 3.51562 46.0938C5.45703 46.0938 7.03125 44.5195 7.03125 42.5781V41.3523C9.01094 41.1047 10.7 39.9336 11.657 38.2812H14.9055C15.8625 39.9336 17.5516 41.1047 19.5312 41.3523V42.5781C19.5312 44.5195 21.1055 46.0938 23.0469 46.0938C24.9883 46.0938 26.5625 44.5195 26.5625 42.5781V35.1562C26.5625 31.7047 23.7641 28.9062 20.3125 28.9062Z" fill="#ADE8F4"/>
<path d="M14.0625 25.7812H10.9375V28.9062H15.625V27.3438C15.625 26.4805 14.9258 25.7812 14.0625 25.7812Z" fill="#48CAE4"/>
<path d="M23.4375 38.2812V36.7188C23.4375 34.5617 21.6883 32.8125 19.5312 32.8125H10.1562C7.99922 32.8125 6.25 31.0633 6.25 28.9062C2.79844 28.9062 0 31.7047 0 35.1562V42.5781C0 44.5195 1.57422 46.0938 3.51562 46.0938C5.45703 46.0938 7.03125 44.5195 7.03125 42.5781V41.3523C9.01094 41.1047 10.7 39.9336 11.657 38.2812H14.9055C15.8625 39.9336 17.5516 41.1047 19.5312 41.3523V42.5781C19.5312 44.5195 21.1055 46.0938 23.0469 46.0938C24.9883 46.0938 26.5625 44.5195 26.5625 42.5781V42.1086C24.7797 41.7469 23.4375 40.1711 23.4375 38.2812Z" fill="#48CAE4"/>
<path d="M12.5 25.7812H10.9375V28.9062H15.625V27.3438H14.0625C13.1992 27.3438 12.5 26.6445 12.5 25.7812Z" fill="#00B4D8"/>
<path d="M8.59375 34.375H7.03125V32.8125C7.03125 32.3813 6.68125 32.0312 6.25 32.0312C5.81875 32.0312 5.46875 32.3813 5.46875 32.8125V34.375H3.90625C3.475 34.375 3.125 34.725 3.125 35.1562C3.125 35.5875 3.475 35.9375 3.90625 35.9375H5.46875V37.5C5.46875 37.9313 5.81875 38.2812 6.25 38.2812C6.68125 38.2812 7.03125 37.9313 7.03125 37.5V35.9375H8.59375C9.025 35.9375 9.375 35.5875 9.375 35.1562C9.375 34.725 9.025 34.375 8.59375 34.375Z" fill="#FDC741"/>
<path d="M17.9688 35.9375C18.4002 35.9375 18.75 35.5877 18.75 35.1562C18.75 34.7248 18.4002 34.375 17.9688 34.375C17.5373 34.375 17.1875 34.7248 17.1875 35.1562C17.1875 35.5877 17.5373 35.9375 17.9688 35.9375Z" fill="#FDC741"/>
<path d="M14.8438 33.5938C15.2752 33.5938 15.625 33.244 15.625 32.8125C15.625 32.381 15.2752 32.0312 14.8438 32.0312C14.4123 32.0312 14.0625 32.381 14.0625 32.8125C14.0625 33.244 14.4123 33.5938 14.8438 33.5938Z" fill="#FCEA42"/>
<path d="M20.3125 33.5938C20.744 33.5938 21.0938 33.244 21.0938 32.8125C21.0938 32.381 20.744 32.0312 20.3125 32.0312C19.881 32.0312 19.5312 32.381 19.5312 32.8125C19.5312 33.244 19.881 33.5938 20.3125 33.5938Z" fill="#FCEA42"/>
<path d="M20.3125 38.2812C20.744 38.2812 21.0938 37.9315 21.0938 37.5C21.0938 37.0685 20.744 36.7188 20.3125 36.7188C19.881 36.7188 19.5312 37.0685 19.5312 37.5C19.5312 37.9315 19.881 38.2812 20.3125 38.2812Z" fill="#FDC741"/>
<path d="M22.6562 35.9375C23.0877 35.9375 23.4375 35.5877 23.4375 35.1562C23.4375 34.7248 23.0877 34.375 22.6562 34.375C22.2248 34.375 21.875 34.7248 21.875 35.1562C21.875 35.5877 22.2248 35.9375 22.6562 35.9375Z" fill="#FCEA42"/>
<path d="M11.7188 33.5938C12.1502 33.5938 12.5 33.244 12.5 32.8125C12.5 32.381 12.1502 32.0312 11.7188 32.0312C11.2873 32.0312 10.9375 32.381 10.9375 32.8125C10.9375 33.244 11.2873 33.5938 11.7188 33.5938Z" fill="#FCEA42"/>
<path d="M15.625 32.8125C15.625 33.2422 15.2734 33.5938 14.8438 33.5938C14.4141 33.5938 14.0625 33.2422 14.0625 32.8125H15.625Z" fill="#FDC741"/>
<path d="M21.0313 33.1094C20.9141 33.3906 20.6406 33.5938 20.3125 33.5938C19.8828 33.5938 19.5312 33.2422 19.5312 32.8125C20.0625 32.8125 20.5703 32.9219 21.0313 33.1094Z" fill="#FDC741"/>
<path d="M23.2812 35.625C23.1406 35.8125 22.9141 35.9375 22.6563 35.9375C22.2266 35.9375 21.875 35.5859 21.875 35.1562C21.875 34.7266 22.2266 34.375 22.6563 34.375C22.9375 34.7422 23.1484 35.1719 23.2812 35.625Z" fill="#FDC741"/>
<path d="M12.5 32.8125C12.5 33.2422 12.1484 33.5938 11.7188 33.5938C11.2891 33.5938 10.9375 33.2422 10.9375 32.8125H12.5Z" fill="#FDC741"/>
</svg>
